<svg xmlns="http://www.w3.org/2000/svg" viewBox="0 9.149999618530273 107.9000015258789 37.25" data-asc="0.918"><g fill="#dedede"><g fill="#dedede" transform="translate(0, 0)"><path d="M3.15 45.90Q1.85 45.90 0.92 44.98Q0 44.05 0 42.75L0 13.05Q0 12.10 0.65 11.42Q1.30 10.75 2.25 10.75Q3.20 10.75 3.87 11.42Q4.55 12.10 4.55 13.05L4.55 41.35L20.90 41.35Q21.85 41.35 22.52 42.02Q23.20 42.70 23.20 43.65Q23.20 44.60 22.52 45.25Q21.85 45.90 20.90 45.90L3.15 45.90ZM36.60 46.40Q33.75 46.40 31.75 45.07Q29.75 43.75 28.70 41.50Q27.65 39.25 27.65 36.60L27.65 22.40Q27.65 21.45 28.32 20.80Q29 20.15 29.95 20.15Q30.90 20.15 31.55 20.80Q32.20 21.45 32.20 22.40L32.20 36.10Q32.20 38.95 33.50 40.57Q34.80 42.20 37.70 42.20Q40.40 42.20 42.40 40.72Q44.40 39.25 45.90 37.40L45.90 22.40Q45.90 21.45 46.58 20.80Q47.25 20.15 48.20 20.15Q49.15 20.15 49.80 20.80Q50.45 21.45 50.45 22.40L50.45 43.85Q50.45 44.80 49.80 45.48Q49.15 46.15 48.20 46.15Q47.25 46.15 46.58 45.48Q45.90 44.80 45.90 43.85L45.90 41.80Q44.35 43.50 42.15 44.95Q39.95 46.40 36.60 46.40ZM60.60 46.15Q59.65 46.15 59.00 45.50Q58.35 44.85 58.35 43.90L58.35 11.45Q58.35 10.50 59.00 9.82Q59.65 9.15 60.60 9.15Q61.55 9.15 62.23 9.82Q62.90 10.50 62.90 11.45L62.90 31.90L74.80 20.90Q75.10 20.65 75.48 20.45Q75.85 20.25 76.30 20.25Q77.60 20.25 78.05 20.97Q78.50 21.70 78.50 22.45Q78.50 22.75 78.35 23.17Q78.20 23.60 77.65 24.15L70.45 30.60L79.50 42.60Q80 43.25 80 43.95Q80 44.95 79.35 45.55Q78.70 46.15 77.70 46.15Q76.65 46.15 75.85 45.20L67.25 33.50L62.90 37.45L62.90 43.90Q62.90 44.85 62.23 45.50Q61.55 46.15 60.60 46.15ZM97 46.40Q90.90 46.40 87.48 42.92Q84.05 39.45 84.05 33.15Q84.05 29.75 85.30 26.72Q86.55 23.70 89.20 21.80Q91.85 19.90 96 19.90Q99.85 19.90 102.50 21.67Q105.15 23.45 106.53 26.30Q107.90 29.15 107.90 32.50Q107.90 33.45 107.28 34.10Q106.65 34.75 105.60 34.75L88.65 34.75Q89.05 38.10 91.20 40.13Q93.35 42.15 97.40 42.15Q99.65 42.15 101.20 41.73Q102.75 41.30 104.15 40.60Q104.55 40.40 105.05 40.40Q105.85 40.40 106.45 40.95Q107.05 41.50 107.05 42.35Q107.05 42.95 106.68 43.42Q106.30 43.90 105.75 44.20Q104.10 45.15 102.18 45.77Q100.25 46.40 97 46.40M88.65 31.05L103.40 31.05Q103.25 28.45 102.08 26.85Q100.90 25.25 99.25 24.50Q97.60 23.75 96 23.75Q94.40 23.75 92.75 24.50Q91.10 25.25 89.95 26.85Q88.80 28.45 88.65 31.05Z"/></g><g fill="#dedede" transform="translate(0, 64.3)"><path d=""/></g></g></svg>