<svg xmlns="http://www.w3.org/2000/svg" viewBox="0 13.149999618530273 105.0999984741211 38.25" data-asc="1.015"><g fill="#c8c8c8"><g fill="#c8c8c8" transform="translate(0, 0)"><path d="M21.95 50.75L11.35 50.75Q5.35 50.75 2.67 48.42Q0 46.10 0 40.85L0 15.15L6.95 15.15L6.95 40.85Q6.95 42.95 7.90 43.75Q8.85 44.55 11.35 44.55L21.95 44.55L21.95 50.75ZM48.35 50.75L43.50 50.75L42 47.35L34 51.05Q30.65 51.05 28.18 48.57Q25.70 46.10 25.70 41.35L25.70 22.20L32.20 22.20L32.20 39.95Q32.20 44.70 36 44.70L41.85 41.55L41.85 22.20L48.35 22.20L48.35 50.75ZM80.20 50.75L72.40 50.75L64.90 40.65L62.05 44.70L62.05 50.75L55.55 50.75L55.55 13.15L62.05 13.15L62.05 36.90L71.15 23.35L78.50 23.35L69.15 36.15L80.20 50.75ZM105 38.00L88.35 38.00Q88.35 41.90 89.58 43.70Q90.80 45.50 94.50 45.50Q96.90 45.50 98.05 43.97Q99.20 42.45 99.20 41.05L105.05 41.05Q105.05 46.40 102.18 48.90Q99.30 51.40 94.58 51.40Q89.85 51.40 87.25 50.05Q81.90 47.30 81.90 35.45Q81.90 28.40 84.95 25.12Q88 21.85 94.25 21.85Q105.10 21.85 105.10 33.90Q105.10 35.20 105 38.00M88.50 33.55L99.20 33.55Q99.20 30.25 97.95 28.75Q96.70 27.25 94.13 27.25Q91.55 27.25 90.03 28.77Q88.50 30.30 88.50 33.55Z"/></g><g fill="#c8c8c8" transform="translate(0, 66.45)"><path d=""/></g></g></svg>